<svg width="77" height="32" fill="none" xmlns="http://www.w3.org/2000/svg"><g clip-path="url(#clip0_8719_11478)"><path d="M30.3377 15.978V5.37282H33.6987C35.8878 5.37282 37.5293 6.67524 37.5293 8.91687C37.5293 11.1585 35.9134 12.512 33.6987 12.512H32.3963V15.978H30.3377ZM32.3963 10.5328H33.5951C34.6379 10.5328 35.3927 9.95965 35.3927 8.91687C35.3927 7.87409 34.6365 7.32787 33.5951 7.32787H32.3963V10.5328ZM65.1496 27.626C63.6117 27.626 61.7361 26.7918 61.7361 24.1869V20.4613H63.6642V24.0578C63.6642 25.2567 64.2118 25.7773 65.1496 25.7773C66.0094 25.7773 66.635 25.1786 66.635 24.0578V20.4613H68.5631V24.1869C68.5631 26.7932 66.6606 27.626 65.1496 27.626ZM48.5516 27.626C46.7016 27.626 45.0856 25.932 45.0856 23.9514C45.0856 21.9708 46.7016 20.3563 48.5516 20.3563C49.5944 20.3563 50.2981 20.7209 50.7138 21.3721L50.9224 20.4599H52.6163V27.443H50.9224L50.7138 26.5577C50.2967 27.1833 49.5149 27.626 48.5516 27.626ZM48.9432 22.1014C47.9004 22.1014 47.1201 22.8831 47.1201 23.9514C47.1201 25.0197 47.9018 25.7759 48.9432 25.7759C49.9846 25.7759 50.7407 24.9687 50.7407 23.9514C50.7407 22.8831 49.959 22.1014 48.9432 22.1014ZM61.58 8.9949H63.5081V15.978H61.58V8.9949ZM62.5703 8.05711C61.8936 8.05711 61.3715 7.53642 61.3715 6.8838C61.3715 6.23117 61.8922 5.68495 62.5703 5.68495C63.2485 5.68495 63.7692 6.20563 63.7692 6.8838C63.7692 7.56196 63.2485 8.05711 62.5703 8.05711ZM58.6872 11.8608C58.6872 11.1046 58.2701 10.6364 57.6189 10.6364C56.8627 10.6364 56.4725 11.106 56.4725 11.8877V15.978H54.5444V11.8608C54.5444 11.1046 54.1273 10.6364 53.4761 10.6364C52.7199 10.6364 52.3298 11.106 52.3298 11.8877V15.978H50.4017V8.9949H52.0957L52.3042 9.90716C52.3042 9.90716 52.7213 8.8133 54.0238 8.8133C54.831 8.8133 55.5092 9.15238 55.9774 9.85609L56.0299 9.93412L56.0824 9.85609C56.7605 8.89275 57.5933 8.8133 58.1154 8.8133C59.6009 8.8133 60.6167 9.93412 60.6167 11.5231V15.9794H58.6886V11.8622L58.6872 11.8608ZM72.1583 15.978V8.9949H73.8267L74.0353 10.0107C74.3474 9.35952 74.9731 8.91687 75.8073 8.91687C75.9903 8.91687 76.1719 8.94241 76.3549 8.9949V10.845C76.1208 10.7925 75.9123 10.7669 75.6768 10.7669C74.739 10.7669 74.0878 11.3401 74.0878 12.4609V15.978H72.1597H72.1583ZM38.1791 15.978V8.9949H39.8476L40.0561 10.0107C40.3682 9.35952 40.9939 8.91687 41.8281 8.91687C42.0097 8.91687 42.1928 8.94241 42.3758 8.9949V10.845C42.1417 10.7925 41.9331 10.7669 41.6976 10.7669C40.7598 10.7669 40.1086 11.3401 40.1086 12.4609V15.978H38.1805H38.1791ZM30.3362 27.443V17.0988H32.3948V25.4893H36.8767V27.443H30.3362ZM41.045 27.6246C38.8828 27.6246 37.2924 26.1391 37.2924 23.9769C37.2924 22.0233 38.7253 20.2768 40.9925 20.2768C42.6865 20.2768 44.4315 21.5537 44.4315 23.9245C44.4315 24.1061 44.4316 24.3416 44.3791 24.6012H39.2715C39.4531 25.3829 40.1568 25.9036 41.0166 25.9036C41.7983 25.9036 42.3971 25.617 42.8936 25.0963L44.0655 26.2952C43.3093 27.155 42.2155 27.6246 41.0421 27.6246M40.9386 21.9708C40.1313 21.9708 39.4531 22.4404 39.2971 23.1952H42.5276C42.3715 22.466 41.7203 21.9708 40.9386 21.9708ZM72.9882 27.6246C70.826 27.6246 69.2356 26.1391 69.2356 23.9769C69.2356 22.0233 70.6686 20.2768 72.9357 20.2768C74.6297 20.2768 76.3748 21.5537 76.3748 23.9245C76.3748 24.1061 76.3748 24.3416 76.3223 24.6012H71.2148C71.3964 25.3829 72.1001 25.9036 72.9613 25.9036C73.743 25.9036 74.3417 25.617 74.8369 25.0963L76.0088 26.2952C75.2526 27.155 74.1587 27.6246 72.9868 27.6246M72.8832 21.9708C72.076 21.9708 71.3978 22.4404 71.2417 23.1952H74.4723C74.3162 22.466 73.665 21.9708 72.8832 21.9708ZM68.0098 16.1596C65.8476 16.1596 64.2572 14.6742 64.2572 12.512C64.2572 10.5584 65.6902 8.81188 67.9573 8.81188C69.6513 8.81188 71.3964 10.0888 71.3964 12.4595C71.3964 12.6411 71.3964 12.8766 71.3439 13.1362H66.2364C66.4194 13.918 67.1217 14.4401 67.9829 14.4401C68.7646 14.4401 69.3633 14.1535 69.8585 13.6314L71.0303 14.8302C70.2742 15.69 69.1803 16.1596 68.007 16.1596M67.9034 10.5059C67.0961 10.5059 66.418 10.9755 66.2619 11.7303H69.4924C69.3364 11.001 68.6852 10.5059 67.9034 10.5059ZM46.2504 16.1596C44.0882 16.1596 42.4978 14.6742 42.4978 12.512C42.4978 10.5584 43.9307 8.81188 46.1979 8.81188C47.8919 8.81188 49.637 10.0888 49.637 12.4595C49.637 12.6411 49.637 12.8766 49.5845 13.1362H44.477C44.66 13.918 45.3637 14.4401 46.2234 14.4401C47.0052 14.4401 47.6039 14.1535 48.1005 13.6314L49.2723 14.8302C48.5161 15.69 47.4223 16.1596 46.249 16.1596M46.1454 10.5059C45.3381 10.5059 44.66 10.9755 44.5039 11.7303H47.7344C47.5783 11.001 46.9271 10.5059 46.1454 10.5059ZM57.1677 22.1014C56.1519 22.1014 55.3432 22.8831 55.3432 23.9514C55.3432 25.0197 56.1505 25.7759 57.1677 25.7759C58.185 25.7759 58.9922 24.9687 58.9922 23.9514C58.9922 22.8831 58.1835 22.1014 57.1677 22.1014ZM58.8872 21.3452L59.0958 20.4599H60.7898V27.1308C60.7898 28.4333 60.4252 29.3455 59.5654 30.0237C58.9142 30.5188 58.0275 30.8834 56.9592 30.8834C55.5007 30.8834 54.4579 30.3883 53.6237 29.581L54.692 28.0956C55.2127 28.5907 55.9164 29.0334 56.8286 29.0334C58.2616 29.0334 58.8872 28.3297 58.8872 27.2883V26.7932C58.3141 27.3919 57.6373 27.6274 56.8811 27.6274C54.9005 27.6274 53.3371 26.0114 53.3371 23.9528C53.3371 21.8942 54.953 20.3577 56.9336 20.3577C57.7409 20.3577 58.4715 20.7493 58.8872 21.348M5.84002 2.6247C7.2304 3.26172 8.1228 4.06615 8.28454 4.18816C8.21076 3.8278 7.93694 2.10117 7.77946 1.02576C8.58957 1.589 10.4708 2.89426 11.088 3.31847C11.3405 2.54099 12.2145 0.00425626 12.2145 0.00425626C12.2145 0.00425626 13.7921 2.55943 14.0617 2.97513C14.3909 2.63037 16.2778 0.532033 16.7659 0C16.8481 1.20736 16.9602 2.9354 16.9858 3.19503C17.0822 3.06593 17.8044 2.05436 19.0146 1.12082C18.4896 2.15367 18.2399 3.58094 18.1279 4.72729C16.9375 4.39388 15.6819 4.21512 14.3852 4.21512C11.8981 4.21512 9.56284 4.87058 7.54395 6.01694C7.17649 4.91173 6.6019 3.53412 5.84002 2.6247ZM20.3354 17.0052L20.3326 15.2275C20.3326 15.2275 19.5395 14.9721 18.6897 14.3138C16.9872 14.572 14.9229 16.2845 14.9229 16.2845C14.9229 16.2845 15.6209 17.6067 16.3814 19.0326C17.7221 19.217 19.6956 17.5273 20.3326 17.0038L20.3354 17.0052ZM22.0493 20.23C22.0493 20.23 21.9131 19.4951 21.33 18.807L20.002 18.8396C20.002 18.8396 18.2101 20.3804 17.1163 20.4159C17.1163 20.4159 17.7193 21.5367 18.0214 22.1212C18.6244 21.9907 19.6828 21.514 20.1084 21.0203C20.1084 21.0203 20.3908 21.9297 20.3369 23.0008C20.9356 22.6518 21.7613 21.7126 22.0507 20.2286L22.0493 20.23ZM22.5955 14.3862C21.9259 14.9508 21.3569 15.263 21.3569 15.263L21.3626 17.0492C21.8436 17.584 22.316 18.0267 22.6707 18.834C23.3418 17.6266 23.2141 15.8475 22.5955 14.3862ZM22.7416 12.7943L22.8466 11.9828C22.8821 11.5359 22.7672 10.7953 22.1415 10.0263C21.3654 9.15522 19.4132 7.75349 18.4825 7.41725C18.4825 7.41725 18.4059 8.31532 18.0853 8.74804C16.231 7.40873 15.3201 7.07391 15.3201 7.07391C13.2828 7.36475 11.9747 8.15074 11.2639 8.7679L11.8839 9.29568C10.6567 9.67307 9.85935 10.7286 9.85935 10.7286C9.86787 10.7471 10.9561 10.9017 10.9561 10.9017C10.9561 10.9017 10.8454 12.18 12.4457 12.9816C13.8148 13.6669 15.7869 12.817 17.6426 13.5605C16.4211 12.1516 15.5812 11.5217 15.5812 11.5217C15.5812 11.5217 15.096 11.421 14.7541 11.4224C14.3284 11.4252 13.6942 11.5104 12.9962 11.238C12.6642 11.1088 12.2755 10.879 11.9719 10.6875C11.9719 10.6875 12.8288 9.80785 14.0787 9.61348C14.0787 9.61348 15.2066 9.93128 16.1019 10.5924C16.6963 10.0136 17.3163 10.032 17.3163 10.032C17.3163 10.032 16.702 10.6066 16.8879 11.3018C17.7817 12.0991 18.7507 13.2384 18.7507 13.2384C19.7381 12.6964 21.8833 12.8213 22.3245 13.332C21.7655 12.6085 20.9611 12.0041 20.3383 11.4862C20.2631 11.2153 19.5835 10.2675 19.4686 10.181C19.4686 10.181 20.1155 10.381 20.6915 10.8975C20.859 10.6619 21.1682 10.4207 21.591 10.3143C22.0266 10.679 22.1018 11.238 22.0904 11.3316C21.8932 11.5643 21.7031 11.6607 21.7031 11.6607L22.7473 12.7915L22.8523 11.98M23.7887 13.454C25.3819 16.398 25.7693 19.925 24.6626 23.4392C24.596 23.364 23.7532 22.422 23.4042 22.0361C23.1829 25.4723 22.1713 28.141 19.2203 30.3954C19.2203 30.3954 18.9394 29.3157 18.7748 28.6404C13.9085 32.2071 9.72457 30.5756 8.54843 29.9896C9.45927 25.8128 8.75415 23.4151 8.14408 21.5863C6.84876 23.7145 5.52222 25.3673 4.19853 26.4839C3.29336 24.3699 3.22384 20.4414 3.95592 18.1203C3.71331 18.1856 2.28321 18.6368 1.49013 18.8779C1.80934 16.747 3.21675 13.8939 4.7036 12.4723C4.44397 12.4269 3.6821 12.319 3.07771 12.2183C3.44942 11.4621 4.52768 10.0575 6.18053 8.73953C6.13229 9.66739 6.47705 10.7769 7.52692 11.3075C6.86153 10.1398 6.78066 8.69838 7.47443 7.9507C8.17104 7.19876 9.34009 7.45697 10.0864 8.0415C9.94874 7.63574 9.64796 7.16613 9.20389 6.85684C11.2639 5.89776 13.7638 5.34303 16.5984 5.78C17.0354 6.16165 17.5022 6.69794 17.7604 7.02993C17.7717 6.79158 17.7377 6.33474 17.6625 5.98714C18.8216 6.26238 20.0318 6.70503 21.286 7.3534C19.0529 5.12596 14.5271 4.45631 10.7503 5.5374C9.86503 5.79135 9.02513 6.12618 8.23488 6.52201C7.40207 6.53194 6.86578 7.04128 6.55933 7.49244C4.1432 9.09563 2.37117 11.2053 1.51708 12.9731C1.70719 13.0142 2.27895 13.0852 2.80815 13.176C1.72706 14.721 0.315397 17.6365 0.407616 20.2541C0.65306 20.1804 1.9725 19.776 2.61945 19.566C2.27328 21.8758 2.37401 25.7561 3.87221 27.975C5.75916 26.6385 6.85302 25.234 7.76244 23.967C7.99653 25.1077 8.22495 27.1351 7.42052 30.4947C8.07314 30.9984 12.8033 33.4826 18.1534 30.2365L18.6003 32L19.1791 31.624C22.4352 29.5087 23.6851 26.6513 24.1221 24.3245C24.2725 24.4905 24.8641 25.1389 25.0769 25.3546C25.8941 23.1257 27.5271 17.7656 23.783 13.4569L23.7887 13.454Z" fill="white"/></g><defs><clipPath id="clip0_8719_11478"><rect width="76.1667" height="32" fill="white" transform="translate(0.333008)"/></clipPath></defs></svg>